<svg width="48" height="48" viewBox="0 0 48 48" fill="none" xmlns="http://www.w3.org/2000/svg">
<path d="M17.2246 11.6897L16.2467 10.0159C14.6528 10.9454 13.2185 12.1247 11.9985 13.509L13.454 14.7871C14.5376 13.5601 15.8105 12.5144 17.2246 11.6897Z" fill="#6C4AF2"/>
<path d="M9.0791 31.6027C9.80917 33.2968 10.8058 34.863 12.031 36.242L13.4774 34.9549C12.3918 33.7394 11.5088 32.3572 10.862 30.8613L9.0791 31.6027Z" fill="#6C4AF2"/>
<path d="M11.9849 16.7473L10.3475 15.7148C9.36061 17.2756 8.63547 18.9871 8.20068 20.7817L10.0837 21.2366C10.4695 19.6469 11.1116 18.1306 11.9849 16.7473Z" fill="#6C4AF2"/>
<path d="M9.65197 24.8481C9.65197 24.4479 9.65197 24.0476 9.69745 23.6565L7.76896 23.5063C7.73257 23.9612 7.71436 24.416 7.71436 24.8709C7.71337 26.2642 7.88137 27.6525 8.21467 29.0053L10.0977 28.5505C9.79842 27.3392 9.64872 26.0959 9.65197 24.8481Z" fill="#6C4AF2"/>
<path d="M39.8758 22.3464L41.7861 22.0326C41.4812 20.2069 40.8806 18.4432 40.0077 16.811L38.293 17.7207C39.0683 19.1664 39.6029 20.7288 39.8758 22.3464Z" fill="#6C4AF2"/>
<path d="M24.2066 9.65197L24.1202 7.71436C22.277 7.7918 20.4585 8.16658 18.7349 8.82414L19.4262 10.6435C20.9556 10.0568 22.57 9.72195 24.2066 9.65197Z" fill="#6C4AF2"/>
<path d="M32.1664 9.32452C30.4968 8.53732 28.7102 8.02732 26.8767 7.81445L26.6538 9.7384C28.2872 9.92564 29.8789 10.3789 31.3659 11.0802L32.1664 9.32452Z" fill="#6C4AF2"/>
<path d="M40.0805 24.7844V24.8481C40.0816 26.485 39.819 28.1114 39.3027 29.6648L41.1221 30.2789C41.7051 28.5276 42.0015 26.6938 41.9999 24.8481V24.7844H40.0805Z" fill="#6C4AF2"/>
<path d="M14.0322 38.1474C15.4643 39.3071 17.0738 40.2286 18.7989 40.8764L19.4858 39.0571C17.9537 38.4803 16.5264 37.6568 15.2603 36.6191L14.0322 38.1474Z" fill="#6C4AF2"/>
<path d="M35.4097 35.8186L36.7742 37.215C38.1069 35.9373 39.2236 34.4519 40.0808 32.8167L38.3661 31.907C37.5963 33.3607 36.5981 34.6813 35.4097 35.8186Z" fill="#6C4AF2"/>
<path d="M38.5388 14.496C37.4225 13.0246 36.0755 11.7436 34.5499 10.7026L33.4492 12.2991C34.8004 13.2239 35.9937 14.3604 36.9833 15.6649L38.5388 14.496Z" fill="#6C4AF2"/>
<path d="M29.0918 39.4621L29.633 41.327C31.4055 40.812 33.0829 40.0133 34.5999 38.9618L33.4946 37.3699C32.1498 38.3007 30.6629 39.0073 29.0918 39.4621Z" fill="#6C4AF2"/>
<path d="M24.88 40.0622C23.8628 40.0628 22.8481 39.9622 21.8508 39.762L21.4688 41.6632C22.592 41.887 23.7346 41.9998 24.88 41.9998C25.5702 41.9998 26.2597 41.9588 26.945 41.877L26.713 39.953C26.1047 40.0257 25.4927 40.0622 24.88 40.0622Z" fill="#6C4AF2"/>
<path d="M33.7174 19.6355H27.4816C27.3185 19.4133 27.1274 19.213 26.9131 19.0397C27.4297 18.6174 27.8029 18.0457 27.9818 17.4029C28.1607 16.7601 28.1364 16.0778 27.9122 15.4494C27.688 14.8209 27.275 14.2773 26.7297 13.8928C26.1844 13.5084 25.5335 13.302 24.8663 13.302C24.1991 13.302 23.5483 13.5084 23.0029 13.8928C22.4576 14.2773 22.0446 14.8209 21.8204 15.4494C21.5962 16.0778 21.5719 16.7601 21.7508 17.4029C21.9297 18.0457 22.303 18.6174 22.8195 19.0397C22.6047 19.2173 22.4122 19.4205 22.2464 19.6446H16.0015C15.7446 19.6446 15.4981 19.7467 15.3165 19.9284C15.1348 20.11 15.0327 20.3565 15.0327 20.6134C15.0327 20.8704 15.1348 21.1167 15.3165 21.2985C15.4981 21.4801 15.7446 21.5822 16.0015 21.5822H21.6324V27.2358C21.6325 27.9 21.8374 28.5481 22.2191 29.0916V36.2598C22.2191 36.3871 22.2442 36.513 22.2929 36.6306C22.3416 36.7481 22.4129 36.8549 22.5029 36.9449C22.5929 37.0349 22.6997 37.1062 22.8172 37.1549C22.9348 37.2036 23.0607 37.2286 23.188 37.2286C23.3152 37.2286 23.4412 37.2036 23.5587 37.1549C23.6762 37.1062 23.783 37.0349 23.873 36.9449C23.963 36.8549 24.0343 36.7481 24.083 36.6306C24.1317 36.513 24.1567 36.3871 24.1567 36.2598V30.3788C24.6189 30.488 25.1001 30.488 25.5622 30.3788V36.2598C25.5622 36.5168 25.6643 36.7632 25.846 36.9449C26.0277 37.1266 26.2741 37.2286 26.531 37.2286C26.788 37.2286 27.0344 37.1266 27.2161 36.9449C27.3978 36.7632 27.4998 36.5168 27.4998 36.2598V29.0916C27.8798 28.5506 28.0846 27.906 28.0866 27.2449V21.5731H33.7174C33.9744 21.5731 34.2208 21.471 34.4025 21.2894C34.5842 21.1077 34.6863 20.8612 34.6863 20.6043C34.6863 20.3474 34.5842 20.1009 34.4025 19.9193C34.2208 19.7376 33.9744 19.6355 33.7174 19.6355ZM24.8663 15.2645C25.1227 15.2645 25.3733 15.3405 25.5865 15.483C25.7997 15.6254 25.9658 15.8279 26.0639 16.0647C26.162 16.3016 26.1877 16.5622 26.1377 16.8137C26.0877 17.0652 25.9642 17.2961 25.7829 17.4774C25.6016 17.6587 25.3707 17.7822 25.1192 17.8322C24.8677 17.8822 24.6071 17.8565 24.3703 17.7584C24.1334 17.6603 23.9309 17.4942 23.7885 17.281C23.6461 17.0678 23.57 16.8172 23.57 16.5608C23.57 16.217 23.7066 15.8873 23.9497 15.6442C24.1928 15.4011 24.5225 15.2645 24.8663 15.2645ZM23.57 27.2358V21.5049C23.5596 21.3291 23.5852 21.153 23.6452 20.9875C23.7053 20.822 23.7986 20.6705 23.9194 20.5424C24.0402 20.4142 24.1858 20.3121 24.3475 20.2423C24.5092 20.1725 24.6834 20.1365 24.8595 20.1365C25.0356 20.1365 25.2098 20.1725 25.3715 20.2423C25.5331 20.3121 25.6788 20.4142 25.7996 20.5424C25.9204 20.6705 26.0136 20.822 26.0737 20.9875C26.1338 21.153 26.1594 21.3291 26.149 21.5049V27.2358C26.1294 27.5646 25.9851 27.8735 25.7454 28.0993C25.5057 28.3252 25.1888 28.451 24.8595 28.451C24.5302 28.451 24.2133 28.3252 23.9736 28.0993C23.7339 27.8735 23.5896 27.5646 23.57 27.2358Z" fill="#6C4AF2"/>
</svg>
