<svg width="48" height="48" viewBox="0 0 48 48" fill="none" xmlns="http://www.w3.org/2000/svg">
<path d="M37.8169 24.4286L31.9626 18.5615C31.7094 18.308 31.4088 18.107 31.0779 17.9698C30.747 17.8326 30.3922 17.762 30.034 17.762C29.6758 17.762 29.3211 17.8326 28.9901 17.9698C28.6592 18.107 28.3586 18.308 28.1054 18.5615C27.895 18.7756 27.7173 19.0197 27.5783 19.2858L23.7211 15.4286C23.468 15.1752 23.1674 14.9741 22.8364 14.8369C22.5055 14.6997 22.1508 14.6291 21.7926 14.6291C21.4343 14.6291 21.0796 14.6997 20.7487 14.8369C20.4178 14.9741 20.1172 15.1752 19.864 15.4286C19.7588 15.5393 19.6628 15.6582 19.5768 15.7844C19.5015 15.5443 19.4069 15.3107 19.294 15.0858L15.4797 7.71436L11.6654 15.0944C11.3277 15.7529 11.1555 16.4837 11.1637 17.2238C11.172 17.9638 11.3603 18.6906 11.7126 19.3415C12.2318 20.3216 13.1177 21.0565 14.1768 21.3858C14.0271 21.7269 13.9497 22.0954 13.9497 22.4679C13.9497 22.8405 14.0271 23.209 14.1768 23.5501C13.486 23.3122 12.7482 23.2435 12.0254 23.3498C11.3025 23.456 10.6157 23.734 10.0225 24.1605C9.42931 24.587 8.94703 25.1496 8.61622 25.8011C8.28536 26.4525 8.11561 27.1738 8.12113 27.9044C8.12225 28.3817 8.19742 28.8559 8.34399 29.3101C7.82846 29.7116 7.42342 30.2375 7.16679 30.8384C6.9102 31.4393 6.81048 32.0956 6.87695 32.7456C6.94346 33.3956 7.17399 34.0181 7.54693 34.5547C7.91988 35.0912 8.42302 35.5242 9.00913 35.813C9.59525 36.1019 10.2451 36.237 10.8978 36.2059C11.5505 36.1748 12.1846 35.9783 12.7406 35.6351C13.2965 35.2917 13.7562 34.8128 14.0764 34.2432C14.3966 33.6737 14.5668 33.032 14.5711 32.3786C14.5711 32.2886 14.5711 32.1986 14.5711 32.1044C15.1717 31.8312 15.7067 31.4322 16.1397 30.9344L17.6654 32.4601C17.0964 32.7696 16.6075 33.2076 16.2375 33.7393C15.8674 34.2709 15.6264 34.8815 15.5336 35.5225C15.4408 36.1636 15.4988 36.8174 15.7029 37.4321C15.9071 38.0469 16.2518 38.6055 16.7096 39.0637C17.1675 39.5219 17.7258 39.867 18.3404 40.0716C18.955 40.2762 19.6088 40.3347 20.25 40.2424C20.8911 40.1501 21.5018 39.9096 22.0337 39.5399C22.5656 39.1703 23.004 38.6816 23.314 38.1129L23.7169 38.5115C25.6027 40.2903 28.1073 41.2646 30.6994 41.2275C33.2916 41.1905 35.7673 40.1451 37.6015 38.3131C39.4358 36.4811 40.4841 34.0066 40.5244 31.4145C40.5646 28.8224 39.5934 26.3166 37.8169 24.4286ZM13.324 30.6044L12.3511 30.8186L12.6511 31.7701C12.7169 31.9664 12.7516 32.1717 12.754 32.3786C12.7554 32.7478 12.6571 33.1104 12.4694 33.4283C12.2817 33.7461 12.0117 34.0073 11.6877 34.1843C11.3638 34.3613 10.9981 34.4475 10.6293 34.4338C10.2604 34.4201 9.90211 34.3069 9.59225 34.1063C9.28235 33.9057 9.03245 33.6252 8.86891 33.2942C8.70536 32.9633 8.63426 32.5944 8.66315 32.2264C8.69199 31.8584 8.81975 31.5051 9.03292 31.2037C9.24605 30.9023 9.53666 30.6642 9.87399 30.5144L10.7783 30.0858L10.2983 29.2286C10.072 28.8209 9.95401 28.3621 9.95542 27.8958C9.95658 27.1619 10.2486 26.4583 10.7676 25.9394C11.2865 25.4204 11.9901 25.1283 12.724 25.1272C13.3482 25.1281 13.9532 25.3429 14.4383 25.7358C14.0071 26.2568 13.785 26.9194 13.815 27.595C13.8451 28.2707 14.1253 28.9109 14.6011 29.3915L14.8583 29.6444C14.4686 30.127 13.9284 30.465 13.324 30.6044ZM13.324 18.4715C13.1119 18.0834 12.9979 17.6494 12.9919 17.2072C12.986 16.765 13.0882 16.328 13.2897 15.9344L15.484 11.6915L17.674 15.9344C17.8766 16.3277 17.9794 16.7648 17.9735 17.2072C17.9675 17.6496 17.8529 18.0838 17.6397 18.4715C17.459 18.8237 17.1937 19.1256 16.8675 19.35C16.5414 19.5744 16.1647 19.7143 15.7711 19.7572C15.5787 19.7744 15.385 19.7744 15.1926 19.7572C14.7983 19.715 14.4207 19.5754 14.0937 19.3509C13.7668 19.1265 13.5008 18.8243 13.3197 18.4715H13.324ZM19.6926 38.4601C19.1287 38.4563 18.585 38.2498 18.1608 37.8782C17.7367 37.5067 17.4603 36.9949 17.3823 36.4364C17.3043 35.8779 17.4298 35.31 17.736 34.8365C18.0421 34.3629 18.5084 34.0154 19.0497 33.8572L21.9297 36.7372C21.7941 37.2281 21.5025 37.6616 21.099 37.9724C20.6955 38.2832 20.2018 38.4543 19.6926 38.4601ZM36.544 37.2215C35.0169 38.7486 32.9458 39.6065 30.7861 39.6065C28.6265 39.6065 26.5554 38.7486 25.0283 37.2215L15.8954 28.1058C15.811 28.0214 15.7441 27.9212 15.6984 27.8108C15.6527 27.7005 15.6291 27.5823 15.6291 27.4629C15.6291 27.3435 15.6527 27.2253 15.6984 27.115C15.7441 27.0047 15.811 26.9045 15.8954 26.8201C16.0659 26.6496 16.2972 26.5538 16.5383 26.5538C16.6577 26.5538 16.7759 26.5773 16.8862 26.623C16.9965 26.6687 17.0967 26.7356 17.1811 26.8201L23.434 33.1072L24.7197 31.8215L18.454 25.5472L16.0283 23.1429C15.9438 23.0585 15.8769 22.9583 15.8312 22.848C15.7855 22.7377 15.762 22.6195 15.762 22.5001C15.762 22.3807 15.7855 22.2625 15.8312 22.1522C15.8769 22.0418 15.9438 21.9416 16.0283 21.8572C16.1988 21.6867 16.43 21.5909 16.6711 21.5909C16.7905 21.5909 16.9087 21.6145 17.019 21.6602C17.1294 21.7058 17.2296 21.7728 17.314 21.8572L25.9926 30.5444L27.2783 29.2586L18.5911 20.5715C18.5354 20.5201 18.4754 20.4772 18.4197 20.4301C18.7557 20.113 19.0404 19.7458 19.264 19.3415C19.3558 19.1693 19.4374 18.9919 19.5083 18.8101C19.6085 18.9805 19.7263 19.1399 19.8597 19.2858L28.5554 27.9815L29.8411 26.6958L21.1497 18.0001C21.0653 17.9156 20.9983 17.8154 20.9527 17.7051C20.907 17.5948 20.8834 17.4766 20.8834 17.3572C20.8834 17.2378 20.907 17.1196 20.9527 17.0093C20.9983 16.899 21.0653 16.7988 21.1497 16.7144C21.2341 16.6299 21.3343 16.563 21.4446 16.5173C21.555 16.4716 21.6732 16.4481 21.7926 16.4481C21.912 16.4481 22.0302 16.4716 22.1405 16.5173C22.2508 16.563 22.351 16.6299 22.4354 16.7144L32.1211 26.4129L33.2054 27.4972L34.4911 26.2115L28.9926 20.7129C29.0494 20.396 29.19 20.1001 29.3997 19.8558C29.5723 19.6892 29.8027 19.5962 30.0426 19.5962C30.2824 19.5962 30.5129 19.6892 30.6854 19.8558L36.5226 25.7144C38.047 27.2411 38.9033 29.3104 38.9033 31.4679C38.9033 33.6254 38.047 35.6948 36.5226 37.2215H36.544Z" fill="#6C4AF2"/>
</svg>
