<svg width="48" height="48" viewBox="0 0 48 48" fill="none" xmlns="http://www.w3.org/2000/svg">
<path d="M29.1867 16.5013L28.6268 17.0313L29.6033 18.0612L30.4899 17.2379C30.8076 17.3488 31.136 17.4259 31.4698 17.4679V18.5078H32.8897V17.4679C33.2156 17.4244 33.5362 17.3473 33.8463 17.2379L34.7495 18.1645L35.7494 17.1646L35.1362 16.5247C35.5823 16.1998 35.9729 15.8047 36.2927 15.3548L35.1128 14.5715C34.776 15.0367 34.3357 15.4173 33.8268 15.6833C33.3178 15.9494 32.754 16.0936 32.1798 16.1047C31.6057 16.0931 31.042 15.9487 30.5332 15.6826C30.0243 15.4166 29.5839 15.0363 29.2467 14.5715L28.6567 14.9648L28.0635 15.3548C28.3754 15.7936 28.7545 16.1805 29.1867 16.5013Z" fill="#6C4AF2"/>
<path d="M12.8278 16.5013L12.2679 17.0313L13.2478 18.0612L14.1377 17.2379C14.4546 17.3549 14.7831 17.4376 15.1176 17.4846V18.5245H16.5375V17.4679C16.8622 17.4238 17.1816 17.3467 17.4907 17.2379L18.394 18.1645L19.3939 17.1646L18.8039 16.5247C19.2482 16.1975 19.6384 15.8028 19.9605 15.3548L18.7573 14.5715C18.4204 15.0367 17.9802 15.4173 17.4712 15.6833C16.9622 15.9494 16.3984 16.0936 15.8242 16.1047C15.25 16.0936 14.6862 15.9494 14.1772 15.6833C13.6683 15.4173 13.228 15.0367 12.8911 14.5715L12.2979 14.9648L11.7046 15.3548C12.0177 15.7926 12.3965 16.1794 12.8278 16.5013Z" fill="#6C4AF2"/>
<path d="M31.3192 22.2476L30.9561 23.6202L32.7959 24.107L33.1591 22.7343L31.3192 22.2476Z" fill="#6C4AF2"/>
<path d="M28.0975 21.3955L27.7344 22.7681L29.5775 23.2558L29.9406 21.8831L28.0975 21.3955Z" fill="#6C4AF2"/>
<path d="M16.7548 22.2229L14.9087 22.7177L15.2779 24.095L17.1239 23.6002L16.7548 22.2229Z" fill="#6C4AF2"/>
<path d="M19.9105 21.3933L18.0674 21.881L18.4306 23.2536L20.2736 22.7659L19.9105 21.3933Z" fill="#6C4AF2"/>
<path d="M24.8749 20.5408L24.5117 21.9134L26.3516 22.4002L26.7148 21.0276L24.8749 20.5408Z" fill="#6C4AF2"/>
<path d="M23.1279 20.5425L21.2881 21.0293L21.6513 22.4019L23.4911 21.9151L23.1279 20.5425Z" fill="#6C4AF2"/>
<path d="M42.5186 20.7175C42.223 20.2055 41.7965 19.7812 41.2828 19.4884C40.7691 19.1955 40.1868 19.0446 39.5955 19.051C38.039 19.081 35.9292 20.6776 35.1359 21.3409L25.2635 18.1611C24.4436 17.8945 23.5603 17.8945 22.7404 18.1611L12.868 21.3508C12.0614 20.6842 9.96495 19.091 8.40842 19.061H8.35177C7.77011 19.0645 7.19947 19.2202 6.69662 19.5126C6.19378 19.8049 5.77618 20.2238 5.48535 20.7276C5.2259 21.2194 5.10988 21.7742 5.15051 22.3287C5.19118 22.8833 5.38691 23.4153 5.71532 23.8639C6.98857 25.7971 10.2616 27.3969 12.0014 28.1469V29.4801L12.2147 29.6901C12.4414 29.9134 17.8542 35.1662 24.0003 35.1662C30.1464 35.1662 35.5626 29.9034 35.8025 29.6667L36.0159 29.4568V28.1236C37.7557 27.3736 41.0154 25.7737 42.302 23.8406C42.6264 23.3923 42.8187 22.8621 42.8569 22.3101C42.8954 21.758 42.778 21.2063 42.5186 20.7175ZM13.4213 26.5437L24.0003 25.0272L34.5826 26.5437V27.9936L24.0003 29.8201L13.4213 27.9936V26.5437ZM23.177 19.5143C23.7179 19.3339 24.3027 19.3339 24.8436 19.5143L34.5993 22.664V25.1105L24.1037 23.6073L24.0003 23.5906L13.4213 25.1105V22.664L23.177 19.5143ZM6.90191 23.074C6.71745 22.8415 6.6032 22.5612 6.57247 22.266C6.54178 21.9708 6.59595 21.673 6.7286 21.4075C6.89762 21.1279 7.1357 20.8965 7.41997 20.7354C7.7042 20.5743 8.02507 20.489 8.35177 20.4876H8.38511C9.31168 20.5042 10.9949 21.6475 12.0014 22.4874V26.5704C9.49832 25.4505 7.62182 24.1706 6.90191 23.074ZM14.2779 29.5701L24.0003 31.2366L33.7294 29.5701C31.9262 31.0332 28.0633 33.7097 24.0003 33.7097C19.9373 33.7097 16.0844 31.0466 14.2779 29.5701ZM41.1054 23.0607C40.3821 24.1706 38.509 25.4505 36.0025 26.5704V22.4774C37.0025 21.6408 38.6923 20.4976 39.6189 20.4776H39.6522C39.9789 20.479 40.2998 20.5643 40.584 20.7254C40.8683 20.8865 41.1063 21.1179 41.2754 21.3975C41.4101 21.664 41.4658 21.9635 41.4356 22.2606C41.4055 22.5577 41.2909 22.84 41.1054 23.074V23.0607Z" fill="#6C4AF2"/>
</svg>
