<svg width="48" height="48" viewBox="0 0 48 48" fill="none" xmlns="http://www.w3.org/2000/svg">
<path d="M30.8898 18.8242H28.7778V14.8135H26.4275V12.5301L28.1338 12.6722V7.28564H16.3945V11.6894L22.0738 12.1662V14.8135H19.7193V18.8326H17.6282C17.1812 18.8309 16.7382 18.9173 16.3245 19.0869C15.9108 19.2564 15.5346 19.5058 15.2174 19.8208C14.9001 20.1357 14.6479 20.5101 14.4753 20.9224C14.3028 21.3349 14.2131 21.7772 14.2114 22.2243V38.497C14.2125 39.3984 14.5711 40.2626 15.2085 40.9C15.8459 41.5374 16.7101 41.896 17.6115 41.8971H30.8898C31.7905 41.8948 32.6536 41.5358 33.2901 40.8985C33.9266 40.2612 34.2846 39.3977 34.2857 38.497V22.2243C34.2846 21.3236 33.9266 20.46 33.2901 19.8227C32.6536 19.1854 31.7905 18.8264 30.8898 18.8242ZM18.1761 10.0417V9.06726H26.3396V10.7401L18.1761 10.0417ZM24.6668 12.597V14.8135H23.8554V12.597H24.6668ZM21.5218 16.5867H26.9962V18.8242H21.5009L21.5218 16.5867ZM32.5083 38.497C32.5083 38.7095 32.4664 38.92 32.3851 39.1164C32.3037 39.3127 32.1846 39.4912 32.0343 39.6414C31.884 39.7917 31.7055 39.9109 31.5092 39.9923C31.3128 40.0736 31.1023 40.1155 30.8898 40.1155H17.6115C17.399 40.1155 17.1885 40.0736 16.9921 39.9923C16.7958 39.9109 16.6173 39.7917 16.467 39.6414C16.3167 39.4912 16.1976 39.3127 16.1162 39.1164C16.0349 38.92 15.993 38.7095 15.993 38.497V22.2243C15.9941 21.7954 16.165 21.3843 16.4683 21.0811C16.7715 20.7778 17.1826 20.6069 17.6115 20.6058H30.8898C31.3187 20.6069 31.7298 20.7778 32.033 21.0811C32.3363 21.3843 32.5072 21.7954 32.5083 22.2243V38.497Z" fill="#6C4AF2"/>
<path d="M24.2486 23.96C23.0713 23.96 21.9206 24.3091 20.9418 24.9632C19.9631 25.6173 19.2003 26.547 18.75 27.6347C18.2997 28.7224 18.1821 29.9192 18.412 31.0737C18.642 32.2283 19.2092 33.2886 20.0419 34.1208C20.8746 34.9529 21.9354 35.5193 23.0901 35.7485C24.2448 35.9777 25.4415 35.8592 26.5289 35.4081C27.6162 34.9571 28.5454 34.1936 29.1988 33.2144C29.8522 32.2352 30.2006 31.0842 30.1998 29.907C30.1975 28.3297 29.5697 26.8177 28.454 25.7028C27.3383 24.5879 25.8258 23.9611 24.2486 23.96ZM24.2486 34.0766C23.4214 34.0766 22.6128 33.8313 21.9251 33.3718C21.2373 32.9122 20.7013 32.2591 20.3847 31.4949C20.0682 30.7307 19.9854 29.8898 20.1468 29.0786C20.3081 28.2673 20.7064 27.5221 21.2913 26.9372C21.8762 26.3523 22.6214 25.954 23.4327 25.7927C24.2439 25.6313 25.0848 25.7141 25.849 26.0306C26.6132 26.3472 27.2664 26.8832 27.7259 27.571C28.1854 28.2587 28.4307 29.0673 28.4307 29.8944C28.4307 31.0036 27.9901 32.0674 27.2058 32.8517C26.4215 33.636 25.3577 34.0766 24.2486 34.0766Z" fill="#6C4AF2"/>
<path d="M25.1392 27.3179H23.3618V29.02H21.6597V30.8016H23.3618V32.4995H25.1392V30.8016H26.8414V29.02H25.1392V27.3179Z" fill="#6C4AF2"/>
</svg>
