<svg width="116" height="28" viewBox="0 0 116 28" fill="none" xmlns="http://www.w3.org/2000/svg">
<path d="M18.2375 14.6191C18.2236 14.6344 18.2102 14.6501 18.1974 14.6662L18.1769 14.6853C18.1619 14.6992 18.1473 14.7136 18.1331 14.7284L14.7772 18.2324L11.4173 14.728L11.4064 14.7167C11.3903 14.7004 11.3747 14.6852 11.3647 14.6753L11.3629 14.6736L11.3519 14.6628L11.1764 14.4338C11.124 14.3653 11.0635 14.3047 10.9968 14.2528C10.3493 13.4243 10 12.4166 10 11.3729L10 11.3727C9.99964 8.77764 12.1345 6.64993 14.7758 6.64993C17.4177 6.64993 19.5517 8.77861 19.5517 11.3729C19.5517 12.4727 19.1638 13.5335 18.4502 14.3842L18.2375 14.6191ZM11.376 14.6944L11.3704 14.6869C11.3722 14.6893 11.3741 14.6918 11.376 14.6944Z" stroke="#6C4AF2" stroke-width="2" stroke-linejoin="round"/>
<path d="M7.56675 17.9261L7.73187 18.1021C7.77347 18.1469 7.81443 18.1917 7.85667 18.2326H7.85795L14.2748 24.9922C14.6692 25.4077 15.3313 25.4075 15.7256 24.9919L22.137 18.2326C22.1479 18.2256 22.1543 18.216 22.1632 18.2051L22.2919 18.0707L22.4256 17.9254L22.4314 17.9222C24.1485 16.0477 25.0957 13.6253 25.0957 11.0979C25.0957 5.52928 20.5671 1 14.9978 1C9.42979 1 4.89795 5.52992 4.89795 11.0979C4.89795 13.6234 5.84387 16.0464 7.56227 17.9222L7.56675 17.9261ZM14.9959 2.76448C19.5917 2.76448 23.3287 6.504 23.3287 11.0986C23.3287 13.0557 22.6407 14.9398 21.3837 16.4419L21.0592 16.8035C21.0112 16.8688 20.9472 16.9309 20.8813 16.9923L14.9984 23.1926L9.10915 16.9923C9.04579 16.9277 8.98051 16.8688 8.93251 16.8035L8.65795 16.4419H8.61059C7.35107 14.9379 6.66307 13.0557 6.66307 11.0986C6.66243 6.50208 10.4013 2.76448 14.9959 2.76448Z" fill="#6C4AF2"/>
<path d="M24.605 14.7306C24.1596 14.5277 23.6393 14.7204 23.4364 15.1645C23.2335 15.6055 23.4255 16.1296 23.8684 16.3364C26.221 17.4167 27.5708 18.8752 27.5708 20.3325C27.5708 23.0915 22.5186 26.0464 14.9961 26.0464C7.48504 26.0464 2.43864 23.0915 2.43864 20.3325C2.43864 18.8752 3.78328 17.4167 6.12568 16.3332C6.56792 16.1296 6.75864 15.6055 6.55512 15.1613C6.34968 14.721 5.82681 14.5277 5.38392 14.7306C2.34713 16.1354 0.674805 18.1245 0.674805 20.328C0.674805 24.5213 6.96408 27.8071 14.9961 27.8071C23.037 27.8071 29.3359 24.5239 29.3359 20.328C29.3334 18.1194 27.6546 16.1322 24.605 14.7306Z" fill="#6C4AF2"/>
<path d="M35.0779 5.164H44.5419C46.5353 5.164 48.0346 5.658 49.0399 6.646C50.0453 7.61667 50.5479 8.986 50.5479 10.754C50.5479 13.25 49.5079 14.914 47.4279 15.746L51.0679 23H46.9859L43.8399 16.344H38.8479V23H35.0779V5.164ZM44.2039 13.198C45.0186 13.198 45.6426 12.9813 46.0759 12.548C46.5093 12.1147 46.7259 11.5167 46.7259 10.754C46.7259 9.99133 46.5093 9.402 46.0759 8.986C45.6426 8.57 45.0186 8.362 44.2039 8.362H38.8479V13.198H44.2039ZM58.5476 23.312C56.3463 23.312 54.6996 22.7313 53.6076 21.57C52.5329 20.4087 51.9956 18.606 51.9956 16.162C51.9956 13.718 52.5329 11.9153 53.6076 10.754C54.6996 9.59267 56.3463 9.012 58.5476 9.012C60.5756 9.012 62.0923 9.60133 63.0976 10.78C64.1029 11.9413 64.6056 13.7353 64.6056 16.162V16.994H55.6096C55.6443 18.2073 55.8869 19.1087 56.3376 19.698C56.7883 20.27 57.5423 20.556 58.5996 20.556C59.3449 20.556 59.9429 20.348 60.3936 19.932C60.8616 19.516 61.0956 18.9267 61.0956 18.164H64.6056C64.6056 19.88 64.0509 21.1713 62.9416 22.038C61.8323 22.8873 60.3676 23.312 58.5476 23.312ZM60.9136 14.628C60.9136 12.7387 60.1249 11.794 58.5476 11.794C57.6463 11.794 56.9616 12.028 56.4936 12.496C56.0429 12.964 55.7656 13.6747 55.6616 14.628H60.9136ZM66.3129 9.324H69.3549L69.6149 11.118H69.7969C70.9062 9.714 72.3275 9.012 74.0609 9.012C75.4649 9.012 76.5655 9.39333 77.3629 10.156C78.1775 10.9187 78.5849 12.1407 78.5849 13.822V23H75.0229V14.576C75.0229 13.7267 74.8235 13.1113 74.4249 12.73C74.0262 12.3487 73.4369 12.158 72.6569 12.158C71.8595 12.158 71.1922 12.444 70.6549 13.016C70.1349 13.5707 69.8749 14.264 69.8749 15.096V23H66.3129V9.324ZM84.8334 23.312C83.5507 23.312 82.6321 22.9653 82.0774 22.272C81.5227 21.5787 81.2454 20.7033 81.2454 19.646V12.236H79.6074V9.324H81.3234L81.9214 5.476H84.8074V9.324H87.1734V12.236H84.8074V19.282C84.8074 20.0273 85.1801 20.4 85.9254 20.4H87.1734V22.896C86.8787 23 86.5061 23.0953 86.0554 23.182C85.6221 23.2687 85.2147 23.312 84.8334 23.312ZM88.7856 4.202H92.3476V14.758L96.8716 9.324H100.98L96.4556 14.576L101.24 23H97.1576L94.1676 17.202L92.3476 18.97V23H88.7856V4.202ZM102.167 4.202H105.729V7.582H102.167V4.202ZM102.167 9.324H105.729V23H102.167V9.324ZM112.055 23.312C110.773 23.312 109.854 22.9653 109.299 22.272C108.745 21.5787 108.467 20.7033 108.467 19.646V12.236H106.829V9.324H108.545L109.143 5.476H112.029V9.324H114.395V12.236H112.029V19.282C112.029 20.0273 112.402 20.4 113.147 20.4H114.395V22.896C114.101 23 113.728 23.0953 113.277 23.182C112.844 23.2687 112.437 23.312 112.055 23.312Z" fill="black"/>
</svg>
